<?xml version="1.0" standalone="no"?>
<!DOCTYPE svg PUBLIC "-//W3C//DTD SVG 20010904//EN"
 "http://www.w3.org/TR/2001/REC-SVG-20010904/DTD/svg10.dtd">
<svg version="1.0" xmlns="http://www.w3.org/2000/svg"
 width="512.000000pt" height="512.000000pt" viewBox="0 0 512.000000 512.000000"
 preserveAspectRatio="xMidYMid meet">
<metadata>
Created by potrace 1.16, written by Peter Selinger 2001-2019
</metadata>
<g transform="translate(0.000000,512.000000) scale(0.100000,-0.100000)"
fill="#000000" stroke="none">
<path d="M2111 5109 c-249 -49 -470 -219 -588 -454 -116 -230 -115 -523 3
-757 37 -74 55 -88 109 -88 79 0 107 77 61 168 -67 132 -89 285 -62 422 54
268 258 472 525 526 331 66 671 -155 756 -491 35 -137 12 -322 -55 -456 -37
-72 -37 -99 -4 -138 20 -24 34 -31 63 -31 54 0 79 24 122 114 60 130 73 191
74 356 0 122 -4 157 -23 224 -86 297 -322 527 -612 596 -91 21 -282 26 -369 9z"/>
<path d="M2143 4661 c-105 -39 -180 -107 -231 -211 l-27 -55 -5 -1123 -5
-1124 -24 -19 c-27 -22 -50 -24 -74 -6 -9 6 -80 122 -158 257 -163 284 -193
326 -274 387 -79 60 -122 80 -212 104 -136 34 -261 23 -388 -35 -116 -54 -161
-124 -153 -239 4 -61 15 -80 527 -967 288 -498 548 -940 579 -983 226 -315
565 -535 962 -622 100 -22 411 -31 522 -16 597 85 1095 503 1276 1071 69 219
67 183 67 1040 l0 775 -29 59 c-41 81 -111 150 -193 189 -63 30 -76 32 -173
32 -98 0 -110 -2 -167 -30 l-61 -31 -23 56 c-29 71 -114 157 -194 196 -55 27
-69 29 -170 29 -113 0 -121 -2 -237 -63 -4 -2 -16 14 -26 35 -37 72 -99 130
-180 170 -73 36 -80 38 -176 38 -88 0 -108 -3 -158 -27 l-57 -27 -3 427 c-3
422 -3 428 -26 485 -34 82 -123 176 -204 213 -84 37 -225 45 -305 15z m243
-196 c22 -13 54 -43 70 -66 l29 -42 5 -873 5 -872 24 -26 c31 -33 96 -36 132
-7 l24 19 5 319 c4 284 7 322 24 356 79 159 312 154 387 -8 17 -36 19 -69 19
-338 0 -303 3 -326 39 -354 21 -16 91 -16 112 0 35 27 39 53 39 264 0 180 3
213 19 248 43 96 145 148 243 125 65 -16 141 -86 157 -145 6 -23 11 -134 11
-268 l0 -229 29 -29 c18 -17 40 -29 56 -29 34 0 80 24 91 47 4 10 10 82 13
160 6 138 7 142 37 185 97 133 289 119 367 -27 22 -40 22 -42 22 -745 0 -647
-2 -713 -19 -805 -106 -564 -527 -997 -1086 -1116 -148 -31 -393 -32 -532 -1
-195 43 -351 108 -507 212 -179 120 -319 275 -448 495 -89 150 -955 1651 -973
1684 -11 22 -10 27 14 48 72 61 251 70 361 18 98 -47 137 -96 295 -370 79
-137 154 -264 167 -281 12 -17 46 -43 74 -59 133 -72 305 -8 355 132 11 31 13
243 14 1123 0 695 4 1098 10 1121 39 141 192 206 316 134z"/>
</g>
</svg>
